<svg xmlns="http://www.w3.org/2000/svg" viewBox="0 0 369.11 546.49"><defs><style>.cls-1,.cls-2,.cls-3{fill:none;}.cls-1{stroke:#010101;stroke-miterlimit:10;}.cls-1,.cls-2{stroke-width:15px;}.cls-2,.cls-3{stroke:#1d1d1b;stroke-linecap:round;stroke-linejoin:round;}.cls-3{stroke-width:16px;}</style></defs><title>kunskap symbol</title><g id="Layer_2" data-name="Layer 2"><g id="Layer_1-2" data-name="Layer 1"><path class="cls-1" d="M201.73,62V197.59a1,1,0,0,1-1.13,1,6.3,6.3,0,0,1-2.77-1.59c-7.46-6.25-23-19.65-23-22.74V57.68"/><path class="cls-1" d="M174.49,57.63V174.25c0,3.1-15.54,16.49-23,22.74a6.36,6.36,0,0,1-2.77,1.59,1,1,0,0,1-1.13-1V53.36"/><path class="cls-2" d="M303.55,353.95"/><path class="cls-3" d="M302.12,421.33l59-4.13v-393a16.23,16.23,0,0,0-19.4-15.92L19.68,23C9,24.89,8,31.84,8,31.84L302.12,78.52v460L8,486.24V31.84"/></g></g></svg>