<svg id="Layer_1" data-name="Layer 1" xmlns="http://www.w3.org/2000/svg" viewBox="0 0 389.48 240.34"><title>KnowelLogga</title><path d="M94.22,646.52a8.33,8.33,0,0,1-3.2-2l0.68-1.12a8,8,0,0,0,2.94,1.88,10.54,10.54,0,0,0,3.88.72,7.41,7.41,0,0,0,4.46-1.12,3.48,3.48,0,0,0,1.51-2.92,3.06,3.06,0,0,0-.8-2.21,5.28,5.28,0,0,0-2-1.27,27.37,27.37,0,0,0-3.19-.92,31,31,0,0,1-3.65-1.09,5.82,5.82,0,0,1-2.33-1.64,4.37,4.37,0,0,1-1-3,5,5,0,0,1,.8-2.76,5.41,5.41,0,0,1,2.44-2,10,10,0,0,1,4.09-.74,11.54,11.54,0,0,1,3.37.5,9.92,9.92,0,0,1,2.86,1.36l-0.56,1.21a9.57,9.57,0,0,0-2.73-1.3,10.3,10.3,0,0,0-2.94-.44,7,7,0,0,0-4.34,1.15,3.61,3.61,0,0,0-1.48,3,3.05,3.05,0,0,0,.8,2.21,5.27,5.27,0,0,0,2,1.27,30,30,0,0,0,3.22.94,30.23,30.23,0,0,1,3.63,1.09,6,6,0,0,1,2.32,1.61,4.22,4.22,0,0,1,1,2.91,4.91,4.91,0,0,1-.81,2.75,5.52,5.52,0,0,1-2.5,2,10.27,10.27,0,0,1-4.13.74A12,12,0,0,1,94.22,646.52Z" transform="translate(-91.02 -412.66)"/><path d="M122.26,632.62A7.19,7.19,0,0,1,125,635.4a8.8,8.8,0,0,1,0,8.11,7.06,7.06,0,0,1-2.73,2.78,7.76,7.76,0,0,1-3.9,1,7.22,7.22,0,0,1-3.69-1,6.64,6.64,0,0,1-2.57-2.67v9.24h-1.48V631.74H112v3.63a6.72,6.72,0,0,1,2.58-2.76,7.18,7.18,0,0,1,3.74-1A7.67,7.67,0,0,1,122.26,632.62Zm-0.8,12.49a5.9,5.9,0,0,0,2.23-2.3,7.38,7.38,0,0,0,0-6.73,5.91,5.91,0,0,0-2.23-2.3,6.21,6.21,0,0,0-3.19-.83,6.13,6.13,0,0,0-3.17.83,5.93,5.93,0,0,0-2.21,2.3,7.38,7.38,0,0,0,0,6.73,5.92,5.92,0,0,0,2.21,2.3,6.13,6.13,0,0,0,3.17.83A6.21,6.21,0,0,0,121.46,645.12Z" transform="translate(-91.02 -412.66)"/><path d="M134.19,632.52a7,7,0,0,1,3.66-.9v1.45l-0.35,0a5.12,5.12,0,0,0-4,1.61,6.45,6.45,0,0,0-1.45,4.47v8h-1.48V631.74H132v3.37A5.34,5.34,0,0,1,134.19,632.52Z" transform="translate(-91.02 -412.66)"/><path d="M154.8,639.8H141.54a6.44,6.44,0,0,0,.92,3.2,5.86,5.86,0,0,0,2.32,2.17,7,7,0,0,0,3.29.77,7,7,0,0,0,2.79-.55,5.43,5.43,0,0,0,2.14-1.61l0.86,1a6.58,6.58,0,0,1-2.52,1.86,8.8,8.8,0,0,1-7.4-.35,7.28,7.28,0,0,1-2.82-2.78,8,8,0,0,1-1-4,8.38,8.38,0,0,1,1-4,7.08,7.08,0,0,1,2.64-2.79,7.64,7.64,0,0,1,7.54,0,7,7,0,0,1,2.63,2.76,8.3,8.3,0,0,1,1,4Zm-10.25-6.16a5.52,5.52,0,0,0-2.08,2,6.63,6.63,0,0,0-.9,3h11.81a6.18,6.18,0,0,0-.89-3,5.73,5.73,0,0,0-5-2.78A5.91,5.91,0,0,0,144.55,633.64Z" transform="translate(-91.02 -412.66)"/><path d="M168.56,633.08a5.66,5.66,0,0,1,1.54,4.3v9.77h-1.42v-2.75a5.13,5.13,0,0,1-2.16,2.11,7.14,7.14,0,0,1-3.4.75,6.26,6.26,0,0,1-4.06-1.21,4.19,4.19,0,0,1-.12-6.3,6.6,6.6,0,0,1,4.39-1.2h5.29v-1.24a4.34,4.34,0,0,0-1.17-3.28,4.74,4.74,0,0,0-3.41-1.12,8.22,8.22,0,0,0-2.94.53,7.36,7.36,0,0,0-2.38,1.42L158,633.81a8.22,8.22,0,0,1,2.78-1.61,10.09,10.09,0,0,1,3.4-.58A6.14,6.14,0,0,1,168.56,633.08Zm-2,12.09a5.39,5.39,0,0,0,2-2.57v-2.89h-5.26a5.23,5.23,0,0,0-3.29.83,2.77,2.77,0,0,0-1,2.27,2.85,2.85,0,0,0,1.12,2.38,5,5,0,0,0,3.16.87A5.8,5.8,0,0,0,166.6,645.17Z" transform="translate(-91.02 -412.66)"/><path d="M189.91,625.24v21.91h-1.45v-3.63a6.62,6.62,0,0,1-2.57,2.78,7.25,7.25,0,0,1-3.75,1,7.67,7.67,0,0,1-3.9-1,7.18,7.18,0,0,1-2.73-2.78,8.15,8.15,0,0,1-1-4,8.24,8.24,0,0,1,1-4.06,7.05,7.05,0,0,1,2.73-2.78,7.75,7.75,0,0,1,3.9-1,7.11,7.11,0,0,1,3.71,1,6.94,6.94,0,0,1,2.58,2.72V625.24h1.48Zm-4.5,19.87a5.93,5.93,0,0,0,2.21-2.3,7.38,7.38,0,0,0,0-6.73,5.94,5.94,0,0,0-2.21-2.3,6.51,6.51,0,0,0-6.35,0,5.94,5.94,0,0,0-2.21,2.3,7.38,7.38,0,0,0,0,6.73,5.93,5.93,0,0,0,2.21,2.3A6.5,6.5,0,0,0,185.41,645.12Z" transform="translate(-91.02 -412.66)"/><path d="M196,627.65a1.12,1.12,0,0,1-.35-0.84,1.21,1.21,0,0,1,1.21-1.21,1.19,1.19,0,0,1,.86.34,1.12,1.12,0,0,1,.35.84,1.21,1.21,0,0,1-1.21,1.21A1.19,1.19,0,0,1,196,627.65Zm0.12,4.09h1.48v15.41h-1.48V631.74Z" transform="translate(-91.02 -412.66)"/><path d="M216,633.3a6.56,6.56,0,0,1,1.68,4.84v9h-1.48v-8.89a5.47,5.47,0,0,0-1.31-4,4.88,4.88,0,0,0-3.68-1.36,5.67,5.67,0,0,0-4.28,1.62,6,6,0,0,0-1.56,4.37v8.21h-1.48V631.74h1.42v3.34a5.87,5.87,0,0,1,2.38-2.54,7.33,7.33,0,0,1,3.74-.92A6.19,6.19,0,0,1,216,633.3Z" transform="translate(-91.02 -412.66)"/><path d="M237.63,631.74V645.5q0,3.84-1.86,5.67T230.16,653a12.28,12.28,0,0,1-4-.65,7.81,7.81,0,0,1-3-1.8l0.8-1.12a8.14,8.14,0,0,0,2.78,1.65,10,10,0,0,0,3.46.59,6.23,6.23,0,0,0,4.55-1.46,6.14,6.14,0,0,0,1.48-4.53v-2.6a6.55,6.55,0,0,1-2.63,2.6,7.78,7.78,0,0,1-3.78.92,8,8,0,0,1-3.91-1,7.06,7.06,0,0,1-2.76-2.67,8,8,0,0,1,0-7.74,7,7,0,0,1,2.76-2.66,8.13,8.13,0,0,1,3.91-.94,7.82,7.82,0,0,1,3.84.94,6.46,6.46,0,0,1,2.63,2.66v-3.48h1.42Zm-4.52,12.74a5.68,5.68,0,0,0,2.26-2.19,6.28,6.28,0,0,0,.81-3.2,6.2,6.2,0,0,0-.81-3.19,5.71,5.71,0,0,0-2.26-2.17,6.72,6.72,0,0,0-3.25-.78,6.63,6.63,0,0,0-3.23.78,5.73,5.73,0,0,0-2.24,2.17,6.2,6.2,0,0,0-.81,3.19,6.28,6.28,0,0,0,.81,3.2,5.7,5.7,0,0,0,2.24,2.19,6.63,6.63,0,0,0,3.23.78A6.72,6.72,0,0,0,233.11,644.48Z" transform="translate(-91.02 -412.66)"/><path d="M263.85,631.74l-7,15.41h-1.51l-6.94-15.41H250l6.14,13.79,6.2-13.79h1.51Z" transform="translate(-91.02 -412.66)"/><path d="M266.95,627.65a1.12,1.12,0,0,1-.35-0.84,1.21,1.21,0,0,1,1.21-1.21,1.19,1.19,0,0,1,.86.34,1.12,1.12,0,0,1,.35.84,1.21,1.21,0,0,1-1.21,1.21A1.19,1.19,0,0,1,266.95,627.65Zm0.12,4.09h1.48v15.41h-1.48V631.74Z" transform="translate(-91.02 -412.66)"/><path d="M282.42,646.18a3.71,3.71,0,0,1-1.4.81,5.54,5.54,0,0,1-1.76.28,4.16,4.16,0,0,1-3.1-1.11,4.2,4.2,0,0,1-1.09-3.09V633h-2.84v-1.27h2.84v-3.37h1.48v3.37h4.9V633h-4.9v9.92a3.26,3.26,0,0,0,.72,2.29,2.77,2.77,0,0,0,2.14.78,3.43,3.43,0,0,0,2.39-.86Z" transform="translate(-91.02 -412.66)"/><path d="M296.12,633.08a5.66,5.66,0,0,1,1.54,4.3v9.77h-1.42v-2.75a5.13,5.13,0,0,1-2.16,2.11,7.14,7.14,0,0,1-3.4.75,6.26,6.26,0,0,1-4.06-1.21,4.19,4.19,0,0,1-.12-6.3,6.6,6.6,0,0,1,4.39-1.2h5.29v-1.24A4.34,4.34,0,0,0,295,634a4.74,4.74,0,0,0-3.41-1.12,8.22,8.22,0,0,0-2.94.53,7.36,7.36,0,0,0-2.38,1.42l-0.74-1.06a8.22,8.22,0,0,1,2.78-1.61,10.09,10.09,0,0,1,3.4-.58A6.14,6.14,0,0,1,296.12,633.08Zm-2,12.09a5.39,5.39,0,0,0,2-2.57v-2.89h-5.26a5.23,5.23,0,0,0-3.29.83,2.77,2.77,0,0,0-1,2.27,2.85,2.85,0,0,0,1.12,2.38,5,5,0,0,0,3.16.87A5.8,5.8,0,0,0,294.16,645.17Z" transform="translate(-91.02 -412.66)"/><path d="M303.74,625.24h1.48v21.91h-1.48V625.24Z" transform="translate(-91.02 -412.66)"/><path d="M324.53,638.91l-4,3.66v4.58H319V625.24h1.48v15.5l9.86-9h1.89L325.62,638l7.29,9.18h-1.83Z" transform="translate(-91.02 -412.66)"/><path d="M348.24,633.3a6.56,6.56,0,0,1,1.68,4.84v9h-1.48v-8.89a5.47,5.47,0,0,0-1.31-4,4.88,4.88,0,0,0-3.68-1.36,5.67,5.67,0,0,0-4.28,1.62,6,6,0,0,0-1.56,4.37v8.21h-1.48V631.74h1.42v3.34a5.87,5.87,0,0,1,2.38-2.54,7.33,7.33,0,0,1,3.74-.92A6.19,6.19,0,0,1,348.24,633.3Z" transform="translate(-91.02 -412.66)"/><path d="M358.12,646.27a7.23,7.23,0,0,1-2.76-2.79,8.59,8.59,0,0,1,0-8.06,7.23,7.23,0,0,1,2.76-2.79,8.24,8.24,0,0,1,7.88,0,7.24,7.24,0,0,1,2.76,2.79,8.59,8.59,0,0,1,0,8.06,7.23,7.23,0,0,1-2.76,2.79A8.24,8.24,0,0,1,358.12,646.27Zm7.12-1.15a5.93,5.93,0,0,0,2.21-2.3,7.38,7.38,0,0,0,0-6.73,5.94,5.94,0,0,0-2.21-2.3,6.51,6.51,0,0,0-6.35,0,5.94,5.94,0,0,0-2.21,2.3,7.38,7.38,0,0,0,0,6.73,5.93,5.93,0,0,0,2.21,2.3A6.5,6.5,0,0,0,365.24,645.12Z" transform="translate(-91.02 -412.66)"/><path d="M395.93,631.74l-5.85,15.41H388.7l-5.2-13.38-5.23,13.38h-1.36l-5.85-15.41h1.42l5.14,13.76,5.26-13.76h1.27l5.23,13.73,5.2-13.73h1.36Z" transform="translate(-91.02 -412.66)"/><path d="M399.36,625.24h1.48v21.91h-1.48V625.24Z" transform="translate(-91.02 -412.66)"/><path d="M420.09,639.8H406.83a6.44,6.44,0,0,0,.92,3.2,5.86,5.86,0,0,0,2.32,2.17,7,7,0,0,0,3.29.77,7,7,0,0,0,2.79-.55,5.43,5.43,0,0,0,2.14-1.61l0.86,1a6.58,6.58,0,0,1-2.52,1.86,8.8,8.8,0,0,1-7.4-.35,7.28,7.28,0,0,1-2.82-2.78,8,8,0,0,1-1-4,8.38,8.38,0,0,1,1-4,7.08,7.08,0,0,1,2.64-2.79,7.64,7.64,0,0,1,7.54,0,7,7,0,0,1,2.63,2.76,8.3,8.3,0,0,1,1,4Zm-10.25-6.16a5.52,5.52,0,0,0-2.08,2,6.63,6.63,0,0,0-.9,3h11.81a6.18,6.18,0,0,0-.89-3,5.73,5.73,0,0,0-5-2.78A5.91,5.91,0,0,0,409.84,633.64Z" transform="translate(-91.02 -412.66)"/><path d="M438.4,625.24v21.91h-1.45v-3.63a6.62,6.62,0,0,1-2.57,2.78,7.25,7.25,0,0,1-3.75,1,7.67,7.67,0,0,1-3.9-1,7.18,7.18,0,0,1-2.73-2.78,8.15,8.15,0,0,1-1-4,8.24,8.24,0,0,1,1-4.06,7.05,7.05,0,0,1,2.73-2.78,7.75,7.75,0,0,1,3.9-1,7.11,7.11,0,0,1,3.71,1,6.94,6.94,0,0,1,2.58,2.72V625.24h1.48Zm-4.5,19.87a5.93,5.93,0,0,0,2.21-2.3,7.38,7.38,0,0,0,0-6.73,5.94,5.94,0,0,0-2.21-2.3,6.51,6.51,0,0,0-6.35,0,5.94,5.94,0,0,0-2.21,2.3,7.38,7.38,0,0,0,0,6.73,5.93,5.93,0,0,0,2.21,2.3A6.5,6.5,0,0,0,433.89,645.12Z" transform="translate(-91.02 -412.66)"/><path d="M458.5,631.74V645.5q0,3.84-1.86,5.67T451,653a12.28,12.28,0,0,1-4-.65,7.82,7.82,0,0,1-3-1.8l0.8-1.12a8.15,8.15,0,0,0,2.77,1.65,10,10,0,0,0,3.46.59,6.23,6.23,0,0,0,4.55-1.46,6.14,6.14,0,0,0,1.48-4.53v-2.6a6.54,6.54,0,0,1-2.63,2.6,7.78,7.78,0,0,1-3.78.92,8,8,0,0,1-3.91-1,7.07,7.07,0,0,1-2.76-2.67,8,8,0,0,1,0-7.74,7,7,0,0,1,2.76-2.66,8.13,8.13,0,0,1,3.91-.94,7.82,7.82,0,0,1,3.84.94,6.46,6.46,0,0,1,2.63,2.66v-3.48h1.42ZM454,644.48a5.68,5.68,0,0,0,2.26-2.19,6.28,6.28,0,0,0,.81-3.2,6.2,6.2,0,0,0-.81-3.19,5.71,5.71,0,0,0-2.26-2.17,6.72,6.72,0,0,0-3.25-.78,6.63,6.63,0,0,0-3.23.78,5.73,5.73,0,0,0-2.24,2.17,6.19,6.19,0,0,0-.81,3.19,6.27,6.27,0,0,0,.81,3.2,5.7,5.7,0,0,0,2.24,2.19,6.63,6.63,0,0,0,3.23.78A6.72,6.72,0,0,0,454,644.48Z" transform="translate(-91.02 -412.66)"/><path d="M477.79,639.8H464.53a6.44,6.44,0,0,0,.92,3.2,5.86,5.86,0,0,0,2.32,2.17,7,7,0,0,0,3.29.77,7,7,0,0,0,2.79-.55,5.43,5.43,0,0,0,2.14-1.61l0.86,1a6.58,6.58,0,0,1-2.52,1.86,8.8,8.8,0,0,1-7.4-.35,7.28,7.28,0,0,1-2.82-2.78,8,8,0,0,1-1-4,8.38,8.38,0,0,1,1-4,7.07,7.07,0,0,1,2.64-2.79,7.64,7.64,0,0,1,7.54,0,7,7,0,0,1,2.63,2.76,8.3,8.3,0,0,1,1,4Zm-10.25-6.16a5.52,5.52,0,0,0-2.08,2,6.63,6.63,0,0,0-.9,3h11.81a6.19,6.19,0,0,0-.89-3,5.73,5.73,0,0,0-5-2.78A5.91,5.91,0,0,0,467.54,633.64Z" transform="translate(-91.02 -412.66)"/><polygon points="389.48 194.81 389.48 202.39 353.79 202.39 353.79 137.57 361.41 137.57 361.41 194.81 389.48 194.81"/><polygon points="337.45 194.81 337.45 202.39 292.67 202.39 292.67 137.38 335.98 137.38 335.98 145 300.3 145 300.3 166.13 328.39 166.13 328.39 173.76 300.3 173.76 300.3 194.81 337.45 194.81"/><polygon points="46.92 202.39 36.84 202.39 36.73 202.23 12.78 169.2 8.01 172.76 8.17 202.39 0.54 202.39 0.54 137.57 8.17 137.57 8.17 164.2 34.52 137.57 45.25 137.57 18.5 163.98 46.92 202.39"/><polygon points="285.1 138.87 259.28 202.39 254.03 202.39 253.59 201.62 234.84 168.97 215.86 202.39 210.98 202.39 210.89 202.15 185.33 138.87 193.99 138.87 194.09 139.1 214.44 189.18 234.73 152.64 255.87 189.46 276.42 138.87 285.1 138.87"/><polygon points="111.76 137.5 111.76 202.39 105.84 202.39 104.89 201.13 68.59 152.76 68.59 202.39 60.96 202.39 60.96 137.38 66.58 137.38 66.7 137.53 104.12 187.4 104.12 137.5 111.76 137.5"/><path d="M268,558.38a31.68,31.68,0,0,0-46,0,35.41,35.41,0,0,0,0,47.05A30.67,30.67,0,0,0,240.89,615c0.42,0.05.83,0.1,1.28,0.14h0c0.92,0.08,1.86.12,2.86,0.12s2,0,2.85-.12h0l1.28-.14A30.69,30.69,0,0,0,268,605.43,35.36,35.36,0,0,0,268,558.38Zm-0.53,33.77a25.38,25.38,0,0,1-1.27,2.82h0a5.2,5.2,0,0,1-.29.52,24.47,24.47,0,0,1-3.95,5.25A23.68,23.68,0,0,1,245,607.69c-13.86,0-24.31-11.08-24.31-25.78a26.17,26.17,0,0,1,8.22-19.66c0.48-.42.93-0.8,1.37-1.15l0.46-.36c0.32-.24.64-0.46,1-0.68l0.53-.34c0.33-.2.65-0.4,1-0.58l0.52-.29c0.36-.18.71-0.36,1.07-0.53l0.55-.24c0.36-.16.74-0.31,1.11-0.45a24.86,24.86,0,0,1,2.91-.87l1.21-.25a25.39,25.39,0,0,1,8.83,0l1.21,0.25a22.5,22.5,0,0,1,2.9.87c0.38,0.14.75,0.29,1.12,0.45l0.55,0.25c0.36,0.16.71,0.34,1.07,0.52a23.66,23.66,0,0,1,2.24,1.35c0.26,0.17.51,0.36,0.76,0.54a23.09,23.09,0,0,1,2.68,2.32c0.27,0.28.54,0.56,0.81,0.86l0.39,0.45c0.25,0.3.51,0.61,0.74,0.92l0.08,0.11c0.1,0.12.19,0.25,0.3,0.39,0.23,0.31.46,0.63,0.67,1a25.61,25.61,0,0,1,2,3.75q0.22,0.48.41,1c0.08,0.17.14,0.35,0.2,0.52l0.08,0.21a28.59,28.59,0,0,1,1.63,9.65A28.23,28.23,0,0,1,267.49,592.15Z" transform="translate(-91.02 -412.66)"/><path d="M250.68,463.94a5.37,5.37,0,0,1-10.56,1.33,2.65,2.65,0,0,0,1.27.32,2.68,2.68,0,0,0,.06-5.36A5.36,5.36,0,0,1,250.68,463.94Z" transform="translate(-91.02 -412.66)"/><path d="M246.17,433.2l-30.74,30.74,26.43,26.43a6.1,6.1,0,0,0,8.63,0l26.43-26.43Zm0.14,38.26a7.59,7.59,0,1,1,6.54-6.54A7.59,7.59,0,0,1,246.3,471.47Z" transform="translate(-91.02 -412.66)"/><path d="M313.34,463.94a5.65,5.65,0,0,1-11.12,1.42,2.78,2.78,0,0,0,1.29.31,2.82,2.82,0,0,0,.11-5.64A5.65,5.65,0,0,1,313.34,463.94Z" transform="translate(-91.02 -412.66)"/><path d="M307.69,433.2L277,463.94l26.42,26.42a6.1,6.1,0,0,0,8.63,0l26.42-26.42Zm0,38.32a7.59,7.59,0,1,1,7.59-7.59A7.59,7.59,0,0,1,307.69,471.53Z" transform="translate(-91.02 -412.66)"/><polygon points="195.96 68.38 185.95 94.76 175.94 68.38 185.95 58.37 195.96 68.38"/><polygon points="220.05 0 219.57 10.56 219.41 10.72 185.95 44.18 152.33 10.57 151.85 0 185.95 34.1 220.05 0"/></svg>