<svg xmlns="http://www.w3.org/2000/svg" viewBox="0 0 575.24 537.72"><defs><style>.cls-1{fill:#1d1d1b;}.cls-2{fill:#010101;}</style></defs><title>hållbar symbol</title><g id="Layer_2" data-name="Layer 2"><g id="Layer_1-2" data-name="Layer 1"><rect class="cls-1" x="296.49" y="30.5" width="14.48" height="14.48" rx="5" ry="5"/><path class="cls-2" d="M306,45.49h-4.48A5.5,5.5,0,0,1,296,40V35.5a5.5,5.5,0,0,1,5.5-5.5H306a5.5,5.5,0,0,1,5.5,5.5V40A5.5,5.5,0,0,1,306,45.49ZM301.49,31a4.5,4.5,0,0,0-4.5,4.5V40a4.5,4.5,0,0,0,4.5,4.5H306a4.5,4.5,0,0,0,4.5-4.5V35.5A4.5,4.5,0,0,0,306,31Z"/><rect class="cls-1" x="46.37" y="369.46" width="14.48" height="14.48" rx="5" ry="5"/><path class="cls-2" d="M55.86,384.44H51.37a5.51,5.51,0,0,1-5.5-5.5v-4.48a5.51,5.51,0,0,1,5.5-5.5h4.48a5.5,5.5,0,0,1,5.5,5.5v4.48A5.5,5.5,0,0,1,55.86,384.44ZM51.37,370a4.5,4.5,0,0,0-4.5,4.5v4.48a4.5,4.5,0,0,0,4.5,4.5h4.48a4.5,4.5,0,0,0,4.5-4.5v-4.48a4.5,4.5,0,0,0-4.5-4.5Z"/><path class="cls-2" d="M450.49,111.36,339.13,0H228.77L113.5,115.27a18.76,18.76,0,0,0,0,26.46l.65.65,52,31.38a18.75,18.75,0,0,0,25.73-.71L284,81l79.76,79.76c4,4,24.2,10.31,32.7,12.84,12.38,3.68,28.62,7.87,38.43,7.87.85,0,1.65,0,2.4-.1a16.67,16.67,0,0,0,15.16-15.15C456.69,117.54,453.24,114.11,450.49,111.36ZM181.26,162.45a3.78,3.78,0,0,1-5.27,0l-.64-.64-51.66-31.18a3.79,3.79,0,0,1,.42-4.75L226.48,23.5l46.86,46.86Zm256.2,2.42a1.69,1.69,0,0,1-1.54,1.53c-11.76,1-55.4-12.93-62-16.7L239.19,15h93.72l106,106C439.6,124.55,439.92,136.92,437.46,164.87Z"/><path class="cls-2" d="M216.06,441.83,95.87,391.69l43.43-104.1c2.17-5.21.33-26.3-.57-35.13-1.42-14-4-32.37-8.34-40.72a16.67,16.67,0,0,0-19.78-8.26c-46.62,14.54-48.49,19-50,22.63L0,371.46,42,473.52l150.46,62.77a18.74,18.74,0,0,0,24.47-10.06l.35-.85,9.25-60A18.75,18.75,0,0,0,216.06,441.83ZM16.24,371.5,74,233.14c3-2,14.34-7,41.12-15.33a1.69,1.69,0,0,1,2,.84c5.44,10.51,9.11,56.16,8.14,63.72L51.88,458.18Zm196.05,89-.35.84L202.75,521a3.79,3.79,0,0,1-4.55,1.42L64.58,466.7,90.1,405.53l120.19,50.14A3.78,3.78,0,0,1,212.29,460.55Z"/><rect class="cls-2" x="491.31" y="427.29" width="14.48" height="14.48" rx="5" ry="5" transform="translate(543.82 1094.33) rotate(-135)"/><path class="cls-2" d="M502.44,427.48l3.17,3.17a5.51,5.51,0,0,1,0,7.78l-3.17,3.17a5.51,5.51,0,0,1-7.78,0l-3.17-3.17a5.5,5.5,0,0,1,0-7.78l3.17-3.17A5.5,5.5,0,0,1,502.44,427.48Zm-7.07,13.41a4.5,4.5,0,0,0,6.36,0l3.17-3.17a4.5,4.5,0,0,0,0-6.36l-3.17-3.17a4.5,4.5,0,0,0-6.36,0l-3.17,3.17a4.5,4.5,0,0,0,0,6.36Z"/><path class="cls-2" d="M429.74,273.61l49.53,120.45L375,437c-5.22,2.15-18.83,18.37-24.44,25.24-8.88,10.88-20.05,25.72-22.9,34.69a16.67,16.67,0,0,0,8.15,19.82c43.25,22.69,47.74,20.83,51.34,19.34l145.65-59.9L575.24,374.3l-62-150.77a18.74,18.74,0,0,0-24.42-10.19l-.85.35-49,35.9A18.75,18.75,0,0,0,429.74,273.61Zm91.57,191-138.66,57c-3.53-.74-15.07-5.21-39.92-18.24a1.69,1.69,0,0,1-.82-2c3.58-11.28,33.27-46.15,39.3-50.82l176.17-72.45ZM445.64,263l.84-.35L495.15,227a3.79,3.79,0,0,1,4.22,2.22l55.06,133.9-61.3,25.21L443.61,267.91A3.78,3.78,0,0,1,445.64,263Z"/></g></g></svg>